<?xml version="1.0" encoding="UTF-8" standalone="no"?>
<svg
   xmlns:dc="http://purl.org/dc/elements/1.1/"
   xmlns:cc="http://creativecommons.org/ns#"
   xmlns:rdf="http://www.w3.org/1999/02/22-rdf-syntax-ns#"
   xmlns:svg="http://www.w3.org/2000/svg"
   xmlns="http://www.w3.org/2000/svg"
   xmlns:sodipodi="http://sodipodi.sourceforge.net/DTD/sodipodi-0.dtd"
   xmlns:inkscape="http://www.inkscape.org/namespaces/inkscape"
   version="1.1"
   width="600"
   height="600"
   id="svg2"
   inkscape:version="0.91 r13725"
   viewBox="0 0 600 600"
   sodipodi:docname="apsl.svg">
  <metadata
     id="metadata12">
    <rdf:RDF>
      <cc:Work
         rdf:about="">
        <dc:format>image/svg+xml</dc:format>
        <dc:type
           rdf:resource="http://purl.org/dc/dcmitype/StillImage" />
        <dc:title></dc:title>
      </cc:Work>
    </rdf:RDF>
  </metadata>
  <defs
     id="defs10" />
  <sodipodi:namedview
     pagecolor="#ffffff"
     bordercolor="#666666"
     borderopacity="1"
     objecttolerance="10"
     gridtolerance="10"
     guidetolerance="10"
     inkscape:pageopacity="0"
     inkscape:pageshadow="2"
     inkscape:window-width="798"
     inkscape:window-height="898"
     id="namedview8"
     showgrid="false"
     inkscape:zoom="0.70518436"
     inkscape:cx="300.47392"
     inkscape:cy="426.61716"
     inkscape:window-x="1680"
     inkscape:window-y="150"
     inkscape:window-maximized="0"
     inkscape:current-layer="svg2" />
  <g
     id="g3378"
     transform="matrix(1.1115002,0,0,1.1115002,-26.013346,70.794662)">
    <path
       inkscape:connector-curvature="0"
       id="path4"
       style="fill:#565757;fill-rule:evenodd"
       d="m 158.8962,401.81763 -12.9792,0 0,-34.4062 c 0,-3.9824 -0.6524,-6.833 -1.9572,-8.5493 -1.3049,-1.717 -3.8112,-2.576 -7.5199,-2.576 l -57.8928,0 c -11.1245,0 -16.6871,5.5627 -16.6871,16.688 0,10.9884 5.5626,16.4822 16.6871,16.4822 l 52.1244,0 c 4.1202,0 6.1806,2.0605 6.1806,6.1807 0,4.1201 -1.9916,6.1806 -5.9749,6.1806 l -54.184,0 c -2.7465,-0.2746 -6.6609,-0.8925 -11.7433,-1.8539 -3.4333,-1.0991 -6.4552,-3.1596 -9.0648,-6.1807 -4.9447,-5.6315 -7.4166,-12.6366 -7.4166,-21.0146 0,-15.2455 5.8372,-24.3792 17.5116,-27.4011 3.8456,-0.9613 8.1035,-1.4425 12.7736,-1.4425 l 56.038,0 c 2.0604,0 6.0437,0.4123 11.9498,1.2368 8.1034,2.1974 12.1547,8.7903 12.1547,19.7779 l 0,36.8781 z m 128.5583,-29.4615 c 0,8.3788 -2.472,15.3832 -7.4166,21.0147 -2.6097,3.0218 -5.6316,5.0815 -9.0649,6.1806 l -11.7433,1.8539 -69.2238,0 0,21.0147 -12.9792,0 0,-57.8928 c 0,-10.9876 4.0513,-17.5805 12.1547,-19.7778 l 12.1556,-1.236 55.8322,0 c 20.1902,0 30.2853,9.614 30.2853,28.8427 z m -13.3916,0.2065 c 0,-11.1253 -5.5626,-16.6879 -16.6879,-16.6879 l -57.892,0 c -5.0823,0 -8.1034,1.7851 -9.0648,5.3561 -0.2754,1.0991 -0.4123,3.0219 -0.4123,5.7692 l 0,22.0441 67.3691,0 c 11.1253,0 16.6879,-5.4938 16.6879,-16.4815 z m 138.6541,11.5368 c 0,5.2192 -1.7859,9.4771 -5.3569,12.7735 -3.571,3.2965 -7.9657,4.9447 -13.185,4.9447 l -84.6758,0 c -3.9832,0 -5.9749,-2.0605 -5.9749,-6.1806 0,-4.1202 2.1294,-6.1807 6.3872,-6.1807 l 82.4088,0 c 4.6701,0 7.0051,-1.717 7.0051,-5.1504 0,-3.571 -2.335,-5.3569 -7.0051,-5.3569 l -71.2835,0 c -5.2192,0 -9.6492,-1.6482 -13.289,-4.9447 -3.6391,-3.2964 -5.4594,-7.4854 -5.4594,-12.567 0,-5.2192 1.8203,-9.4771 5.4594,-12.7735 3.6398,-3.2965 8.0698,-4.9447 13.289,-4.9447 l 84.675,0 c 3.8464,0 5.7692,2.1285 5.7692,6.3864 0,3.9833 -2.0605,5.9749 -6.1807,5.9749 l -82.4095,0 c -4.6701,0 -7.0044,1.7859 -7.0044,5.3569 0,3.4334 2.3343,5.1504 7.0044,5.1504 l 71.2842,0 c 5.2193,0 9.614,1.6138 13.185,4.8414 3.571,3.2276 5.3569,7.4511 5.3569,12.6703 z m 125.4331,11.5376 c 0,4.1201 -1.9908,6.1806 -5.9741,6.1806 l -86.7362,0 c -5.2193,0 -9.614,-1.8195 -13.185,-5.4594 -3.571,-3.6398 -5.357,-8.0698 -5.357,-13.289 l 0,-39.3501 12.9793,0 0,39.5566 c 0,4.1201 2.4727,6.1806 7.4174,6.1806 l 84.4693,0 c 4.2578,0 6.3863,2.0605 6.3863,6.1807 z" />
    <path
       inkscape:connector-curvature="0"
       id="path6"
       style="fill:#f5ba00;fill-rule:evenodd"
       d="m 356.9961,147.09213 c 0,-22.2077 -7.922,-41.5589 -23.7662,-58.116501 -15.8433,-16.5585 -34.1549,-24.8059 -54.8048,-24.8059 -22.4675,0 -41.558,8.2474 -57.3376,24.8059 -15.7788,16.557601 -23.7009,37.077601 -23.7009,61.558101 0,23.311 7.8576,42.9867 23.5718,59.0254 15.7142,16.0386 34.6101,24.0907 56.6878,24.0907 21.2988,0 39.8695,-8.4411 55.6491,-25.3894 15.7788,-16.9475 23.7008,-37.3375 23.7008,-61.1683 z M 66.2485,126.71303 190.1244,83.391029 c -13.6752,18.652001 -20.53,40.629001 -20.53,65.974001 0,30.8441 10.195,56.7524 30.6495,77.7268 20.3892,20.9735 45.9739,31.4929 76.6226,31.4929 8.2457,0 16.2147,-0.861 23.9088,-2.573 l -168.6769,58.9909 c -13.1805,4.6096 -27.7352,-2.4028 -32.3448,-15.5834 L 50.6651,159.05783 c -4.6096,-13.1797 2.4029,-27.7353 15.5834,-32.3448 z M 306.4924,42.694029 453.0974,-8.5777705 c 13.1797,-4.6095005 27.7352,2.4021 32.3448,15.5826 L 534.5299,147.36633 c 4.6095,13.1805 -2.4029,27.7352 -15.5834,32.3447 l -135.7167,47.4638 0,-183.394201 -26.2337,0 0,33.506 c -8.8954,-12.2726 -20.0646,-21.6879 -33.5059,-28.2459 -5.4505,-2.6594 -11.1156,-4.7722 -16.9978,-6.3467 z m 50.5037,193.655401 -33.2494,11.6287 c 13.9494,-6.8514 25.013,-16.1527 33.2494,-28.0295 l 0,16.4008 z" />
  </g>
</svg>
